<?xml version="1.0" encoding="UTF-8"?>
<svg id="Layer_1" data-name="Layer 1" xmlns="http://www.w3.org/2000/svg" version="1.1" viewBox="0 0 800 800">
  <defs>
    <style>
      .cls-1 {
        fill: none;
        stroke: #b3b3b3;
        stroke-linecap: round;
        stroke-linejoin: round;
        stroke-width: 66.7px;
      }
    </style>
  </defs>
  <path class="cls-1" d="M309.7,700v-85.3l1.1-60.6c1.3-18.9,8.7-36.6,20.8-50.4.2-.2.4-.4.5-.6.5-.5.2-1.4-.5-1.4h0c-80.8-10.1-165-44.2-165-192.7-.5-36.6,11.4-72,33.5-99.8.8-1,1.6-1.9,2.4-2.9h0c1-1.2,1.4-2.9.9-4.5,0,0,0-.2,0-.3-.5-1.8-1-3.5-1.5-5.3-8.1-30.6-6.4-63.3,5-92.8,0-.2.2-.4.3-.7.4-1.1,1.3-1.9,2.5-2.1h0c7.2-1.3,36.1-3,91.5,35.3,1.7,1.2,3.5,2.4,5.3,3.7h0c1.3.9,2.9,1.2,4.4.8,0,0,0,0,.1,0,3-.8,6-1.6,8.9-2.4,52.7-13.4,107.6-13.4,160.3,0,2.8.7,5.7,1.5,8.5,2.3,0,0,.1,0,.2,0,1.8.5,3.7.2,5.2-.9h0c1.7-1.2,3.3-2.3,4.9-3.4,55.3-38.2,84.1-36.6,91.3-35.3h0c1.2.2,2.1,1.1,2.5,2.2,0,.1.1.3.2.4,11.6,29.5,13.4,62.3,5.3,93-.5,1.8-1,3.7-1.6,5.5h0c-.5,1.6-.1,3.4.9,4.7,0,0,0,0,.1.1.7.9,1.4,1.8,2.2,2.7,22.1,27.8,34,63.3,33.5,99.8,0,149.3-84.8,182.5-165.9,191.6h0c-.5,0-.7.6-.4,1,.1.1.2.3.4.4,8.2,9.1,14.5,20,18.7,31.8,4.3,12.4,6,25.6,5.1,38.8v127.5"/>
  <path class="cls-1" d="M133.3,566.7c12.3,1.7,24.1,6.3,34.4,13.2,10.3,7,18.9,16.2,25.1,27,5.3,9.6,12.4,18.1,21,24.9s18.4,11.9,28.9,15c10.5,3,21.5,3.9,32.4,2.7,10.9-1.3,21.4-4.6,30.9-10"/>
</svg>